<svg width="344" height="34" viewBox="0 0 344 34" fill="none" xmlns="http://www.w3.org/2000/svg">
<path d="M24.4658 15H323.809" stroke="#E0E0E0" stroke-width="3.23809"/>
<path d="M10 15H263" stroke="#F51C2B" stroke-width="3.23809"/>
<g filter="url(#filter0_d)">
<circle cx="263" cy="15" r="14.1005" fill="#F8F8F8" stroke="#F22525" stroke-width="1.79894"/>
<path d="M262.368 15.1122C263.952 15.1122 265.124 15.4226 265.884 16.0434C266.644 16.6535 267.024 17.4884 267.024 18.5481C267.024 19.2224 266.858 19.8325 266.526 20.3784C266.194 20.9243 265.697 21.3578 265.033 21.6789C264.369 22 263.551 22.1606 262.577 22.1606C261.774 22.1606 260.998 22.0482 260.249 21.8234C259.499 21.5879 258.868 21.2668 258.354 20.8601L259.237 19.2385C259.654 19.581 260.152 19.8539 260.73 20.0573C261.319 20.2499 261.924 20.3463 262.544 20.3463C263.283 20.3463 263.861 20.1964 264.278 19.8967C264.707 19.5863 264.921 19.1635 264.921 18.6283C264.921 18.0503 264.691 17.6168 264.23 17.3278C263.781 17.0281 263.005 16.8783 261.902 16.8783H259.189L259.767 10.7611H266.366V12.5112H261.533L261.292 15.1122H262.368Z" fill="#F22525"/>
</g>
<g filter="url(#filter1_d)">
<circle cx="15" cy="15" r="15" fill="#F51C2B"/>
<path d="M16.5348 10.7611V22H14.4475V12.5112H12.0713V10.7611H16.5348Z" fill="white"/>
</g>
<g filter="url(#filter2_d)">
<circle cx="77" cy="15" r="15" fill="#F51C2B"/>
<path d="M81.1735 20.2339V22H72.8889V20.6032L77.3523 16.3645C77.8554 15.8829 78.1926 15.4654 78.3638 15.1122C78.5458 14.7483 78.6368 14.3897 78.6368 14.0365C78.6368 13.512 78.4601 13.1106 78.1069 12.8323C77.7537 12.554 77.2346 12.4149 76.5495 12.4149C75.4043 12.4149 74.5266 12.8055 73.9164 13.5869L72.4554 12.463C72.8942 11.8743 73.4829 11.4194 74.2215 11.0983C74.9708 10.7665 75.8056 10.6006 76.7262 10.6006C77.9464 10.6006 78.9204 10.8896 79.6483 11.4676C80.3761 12.0456 80.74 12.8323 80.74 13.8277C80.74 14.4379 80.6116 15.0105 80.3547 15.5457C80.0978 16.0809 79.6054 16.691 78.8776 17.376L75.8752 20.2339H81.1735Z" fill="white"/>
</g>
<g filter="url(#filter3_d)">
<circle cx="139" cy="15" r="15" fill="#F51C2B"/>
<path d="M139.984 15.4012C141.023 15.5296 141.815 15.8829 142.36 16.4609C142.906 17.0388 143.179 17.7613 143.179 18.6283C143.179 19.2813 143.013 19.8753 142.682 20.4105C142.35 20.9457 141.847 21.3738 141.172 21.6949C140.509 22.0054 139.695 22.1606 138.732 22.1606C137.929 22.1606 137.153 22.0482 136.404 21.8234C135.665 21.5879 135.034 21.2668 134.509 20.8601L135.408 19.2385C135.815 19.581 136.308 19.8539 136.886 20.0573C137.474 20.2499 138.079 20.3463 138.7 20.3463C139.438 20.3463 140.016 20.1964 140.434 19.8967C140.862 19.5863 141.076 19.1689 141.076 18.6444C141.076 18.1199 140.873 17.7132 140.466 17.4242C140.07 17.1245 139.46 16.9746 138.636 16.9746H137.608V15.5457L140.161 12.5112H135.055V10.7611H142.714V12.158L139.984 15.4012Z" fill="white"/>
</g>
<g filter="url(#filter4_d)">
<circle cx="201" cy="15" r="15" fill="#F51C2B"/>
<path d="M206.276 19.4472H204.285V22H202.262V19.4472H196.097V18.0022L201.636 10.7611H203.868L198.65 17.6811H202.326V15.4172H204.285V17.6811H206.276V19.4472Z" fill="white"/>
</g>
<g filter="url(#filter5_d)">
<circle cx="325" cy="15" r="15" fill="#E0E0E0"/>
<path d="M325.78 15.064C326.518 15.064 327.182 15.2085 327.771 15.4975C328.359 15.7758 328.82 16.1772 329.151 16.7017C329.483 17.2262 329.649 17.8309 329.649 18.516C329.649 19.2438 329.467 19.886 329.103 20.4426C328.739 20.9885 328.247 21.4113 327.626 21.711C327.005 22.0107 326.31 22.1606 325.539 22.1606C323.998 22.1606 322.799 21.6789 321.942 20.7156C321.097 19.7522 320.674 18.3715 320.674 16.5732C320.674 15.3102 320.904 14.2345 321.364 13.3461C321.825 12.447 322.467 11.7673 323.291 11.307C324.126 10.8361 325.089 10.6006 326.181 10.6006C326.759 10.6006 327.3 10.6648 327.803 10.7933C328.316 10.911 328.761 11.0876 329.135 11.3231L328.365 12.8965C327.808 12.5326 327.096 12.3506 326.229 12.3506C325.148 12.3506 324.303 12.6825 323.693 13.3461C323.082 14.0097 322.777 14.9677 322.777 16.22V16.2361C323.109 15.8507 323.532 15.5617 324.046 15.3691C324.56 15.1657 325.138 15.064 325.78 15.064ZM325.426 20.5229C326.079 20.5229 326.609 20.3516 327.016 20.0091C327.423 19.6559 327.626 19.1903 327.626 18.6123C327.626 18.0236 327.423 17.558 327.016 17.2155C326.609 16.8729 326.063 16.7017 325.378 16.7017C324.704 16.7017 324.153 16.8836 323.725 17.2476C323.307 17.6115 323.098 18.0718 323.098 18.6283C323.098 19.1742 323.302 19.6291 323.709 19.9931C324.126 20.3463 324.699 20.5229 325.426 20.5229Z" fill="#959595"/>
</g>
<defs>
<filter id="filter0_d" x="248" y="0" width="32.1587" height="32.1587" filterUnits="userSpaceOnUse" color-interpolation-filters="sRGB">
<feFlood flood-opacity="0" result="BackgroundImageFix"/>
<feColorMatrix in="SourceAlpha" type="matrix" values="0 0 0 0 0 0 0 0 0 0 0 0 0 0 0 0 0 0 127 0"/>
<feOffset dx="1.07936" dy="1.07936"/>
<feGaussianBlur stdDeviation="0.539681"/>
<feColorMatrix type="matrix" values="0 0 0 0 0 0 0 0 0 0 0 0 0 0 0 0 0 0 0.15 0"/>
<feBlend mode="normal" in2="BackgroundImageFix" result="effect1_dropShadow"/>
<feBlend mode="normal" in="SourceGraphic" in2="effect1_dropShadow" result="shape"/>
</filter>
<filter id="filter1_d" x="0" y="0" width="33.7778" height="33.7778" filterUnits="userSpaceOnUse" color-interpolation-filters="sRGB">
<feFlood flood-opacity="0" result="BackgroundImageFix"/>
<feColorMatrix in="SourceAlpha" type="matrix" values="0 0 0 0 0 0 0 0 0 0 0 0 0 0 0 0 0 0 127 0"/>
<feOffset dx="1.88888" dy="1.88888"/>
<feGaussianBlur stdDeviation="0.944441"/>
<feColorMatrix type="matrix" values="0 0 0 0 0 0 0 0 0 0 0 0 0 0 0 0 0 0 0.1 0"/>
<feBlend mode="normal" in2="BackgroundImageFix" result="effect1_dropShadow"/>
<feBlend mode="normal" in="SourceGraphic" in2="effect1_dropShadow" result="shape"/>
</filter>
<filter id="filter2_d" x="62" y="0" width="33.7778" height="33.7778" filterUnits="userSpaceOnUse" color-interpolation-filters="sRGB">
<feFlood flood-opacity="0" result="BackgroundImageFix"/>
<feColorMatrix in="SourceAlpha" type="matrix" values="0 0 0 0 0 0 0 0 0 0 0 0 0 0 0 0 0 0 127 0"/>
<feOffset dx="1.88888" dy="1.88888"/>
<feGaussianBlur stdDeviation="0.944441"/>
<feColorMatrix type="matrix" values="0 0 0 0 0 0 0 0 0 0 0 0 0 0 0 0 0 0 0.1 0"/>
<feBlend mode="normal" in2="BackgroundImageFix" result="effect1_dropShadow"/>
<feBlend mode="normal" in="SourceGraphic" in2="effect1_dropShadow" result="shape"/>
</filter>
<filter id="filter3_d" x="124" y="0" width="33.7778" height="33.7778" filterUnits="userSpaceOnUse" color-interpolation-filters="sRGB">
<feFlood flood-opacity="0" result="BackgroundImageFix"/>
<feColorMatrix in="SourceAlpha" type="matrix" values="0 0 0 0 0 0 0 0 0 0 0 0 0 0 0 0 0 0 127 0"/>
<feOffset dx="1.88888" dy="1.88888"/>
<feGaussianBlur stdDeviation="0.944441"/>
<feColorMatrix type="matrix" values="0 0 0 0 0 0 0 0 0 0 0 0 0 0 0 0 0 0 0.1 0"/>
<feBlend mode="normal" in2="BackgroundImageFix" result="effect1_dropShadow"/>
<feBlend mode="normal" in="SourceGraphic" in2="effect1_dropShadow" result="shape"/>
</filter>
<filter id="filter4_d" x="186" y="0" width="33.7778" height="33.7778" filterUnits="userSpaceOnUse" color-interpolation-filters="sRGB">
<feFlood flood-opacity="0" result="BackgroundImageFix"/>
<feColorMatrix in="SourceAlpha" type="matrix" values="0 0 0 0 0 0 0 0 0 0 0 0 0 0 0 0 0 0 127 0"/>
<feOffset dx="1.88888" dy="1.88888"/>
<feGaussianBlur stdDeviation="0.944441"/>
<feColorMatrix type="matrix" values="0 0 0 0 0 0 0 0 0 0 0 0 0 0 0 0 0 0 0.1 0"/>
<feBlend mode="normal" in2="BackgroundImageFix" result="effect1_dropShadow"/>
<feBlend mode="normal" in="SourceGraphic" in2="effect1_dropShadow" result="shape"/>
</filter>
<filter id="filter5_d" x="310" y="0" width="33.7778" height="33.7778" filterUnits="userSpaceOnUse" color-interpolation-filters="sRGB">
<feFlood flood-opacity="0" result="BackgroundImageFix"/>
<feColorMatrix in="SourceAlpha" type="matrix" values="0 0 0 0 0 0 0 0 0 0 0 0 0 0 0 0 0 0 127 0"/>
<feOffset dx="1.88888" dy="1.88888"/>
<feGaussianBlur stdDeviation="0.944441"/>
<feColorMatrix type="matrix" values="0 0 0 0 0 0 0 0 0 0 0 0 0 0 0 0 0 0 0.1 0"/>
<feBlend mode="normal" in2="BackgroundImageFix" result="effect1_dropShadow"/>
<feBlend mode="normal" in="SourceGraphic" in2="effect1_dropShadow" result="shape"/>
</filter>
</defs>
</svg>
