<svg width="343" height="34" viewBox="0 0 343 34" fill="none" xmlns="http://www.w3.org/2000/svg">
<path d="M24.4658 15H323.809" stroke="#E0E0E0" stroke-width="3.23809"/>
<path d="M10 15H325" stroke="#F51C2B" stroke-width="3.23809"/>
<g filter="url(#filter0_d)">
<circle cx="325" cy="15" r="14.1005" fill="#F8F8F8" stroke="#F22525" stroke-width="1.79894"/>
<path d="M325.612 15.064C326.351 15.064 327.015 15.2085 327.603 15.4975C328.192 15.7758 328.652 16.1772 328.984 16.7017C329.316 17.2262 329.482 17.8309 329.482 18.516C329.482 19.2438 329.3 19.886 328.936 20.4426C328.572 20.9885 328.08 21.4113 327.459 21.711C326.838 22.0107 326.142 22.1606 325.372 22.1606C323.83 22.1606 322.631 21.6789 321.775 20.7156C320.93 19.7522 320.507 18.3715 320.507 16.5732C320.507 15.3102 320.737 14.2345 321.197 13.3461C321.657 12.447 322.3 11.7673 323.124 11.307C323.959 10.8361 324.922 10.6006 326.014 10.6006C326.592 10.6006 327.132 10.6648 327.635 10.7933C328.149 10.911 328.593 11.0876 328.968 11.3231L328.197 12.8965C327.641 12.5326 326.929 12.3506 326.062 12.3506C324.981 12.3506 324.135 12.6825 323.525 13.3461C322.915 14.0097 322.61 14.9677 322.61 16.22V16.2361C322.942 15.8507 323.365 15.5617 323.878 15.3691C324.392 15.1657 324.97 15.064 325.612 15.064ZM325.259 20.5229C325.912 20.5229 326.442 20.3516 326.849 20.0091C327.255 19.6559 327.459 19.1903 327.459 18.6123C327.459 18.0236 327.255 17.558 326.849 17.2155C326.442 16.8729 325.896 16.7017 325.211 16.7017C324.537 16.7017 323.985 16.8836 323.557 17.2476C323.14 17.6115 322.931 18.0718 322.931 18.6283C322.931 19.1742 323.135 19.6291 323.541 19.9931C323.959 20.3463 324.531 20.5229 325.259 20.5229Z" fill="#F22525"/>
</g>
<g filter="url(#filter1_d)">
<circle cx="15" cy="15" r="15" fill="#F51C2B"/>
<path d="M16.5348 10.7611V22H14.4475V12.5112H12.0713V10.7611H16.5348Z" fill="white"/>
</g>
<g filter="url(#filter2_d)">
<circle cx="77" cy="15" r="15" fill="#F51C2B"/>
<path d="M81.1735 20.2339V22H72.8889V20.6032L77.3523 16.3645C77.8554 15.8829 78.1926 15.4654 78.3638 15.1122C78.5458 14.7483 78.6368 14.3897 78.6368 14.0365C78.6368 13.512 78.4601 13.1106 78.1069 12.8323C77.7537 12.554 77.2346 12.4149 76.5495 12.4149C75.4043 12.4149 74.5266 12.8055 73.9164 13.5869L72.4554 12.463C72.8942 11.8743 73.4829 11.4194 74.2215 11.0983C74.9708 10.7665 75.8056 10.6006 76.7262 10.6006C77.9464 10.6006 78.9204 10.8896 79.6483 11.4676C80.3761 12.0456 80.74 12.8323 80.74 13.8277C80.74 14.4379 80.6116 15.0105 80.3547 15.5457C80.0978 16.0809 79.6054 16.691 78.8776 17.376L75.8752 20.2339H81.1735Z" fill="white"/>
</g>
<g filter="url(#filter3_d)">
<circle cx="139" cy="15" r="15" fill="#F51C2B"/>
<path d="M139.984 15.4012C141.023 15.5296 141.815 15.8829 142.36 16.4609C142.906 17.0388 143.179 17.7613 143.179 18.6283C143.179 19.2813 143.013 19.8753 142.682 20.4105C142.35 20.9457 141.847 21.3738 141.172 21.6949C140.509 22.0054 139.695 22.1606 138.732 22.1606C137.929 22.1606 137.153 22.0482 136.404 21.8234C135.665 21.5879 135.034 21.2668 134.509 20.8601L135.408 19.2385C135.815 19.581 136.308 19.8539 136.886 20.0573C137.474 20.2499 138.079 20.3463 138.7 20.3463C139.438 20.3463 140.016 20.1964 140.434 19.8967C140.862 19.5863 141.076 19.1689 141.076 18.6444C141.076 18.1199 140.873 17.7132 140.466 17.4242C140.07 17.1245 139.46 16.9746 138.636 16.9746H137.608V15.5457L140.161 12.5112H135.055V10.7611H142.714V12.158L139.984 15.4012Z" fill="white"/>
</g>
<g filter="url(#filter4_d)">
<circle cx="201" cy="15" r="15" fill="#F51C2B"/>
<path d="M206.276 19.4472H204.285V22H202.262V19.4472H196.097V18.0022L201.636 10.7611H203.868L198.65 17.6811H202.326V15.4172H204.285V17.6811H206.276V19.4472Z" fill="white"/>
</g>
<g filter="url(#filter5_d)">
<circle cx="263" cy="15" r="15" fill="#F51C2B"/>
<path d="M262.535 15.1122C264.119 15.1122 265.291 15.4226 266.051 16.0434C266.811 16.6535 267.191 17.4884 267.191 18.5481C267.191 19.2224 267.025 19.8325 266.694 20.3784C266.362 20.9243 265.864 21.3578 265.2 21.6789C264.537 22 263.718 22.1606 262.744 22.1606C261.941 22.1606 261.165 22.0482 260.416 21.8234C259.667 21.5879 259.035 21.2668 258.521 20.8601L259.404 19.2385C259.822 19.581 260.32 19.8539 260.898 20.0573C261.486 20.2499 262.091 20.3463 262.712 20.3463C263.45 20.3463 264.028 20.1964 264.446 19.8967C264.874 19.5863 265.088 19.1635 265.088 18.6283C265.088 18.0503 264.858 17.6168 264.398 17.3278C263.948 17.0281 263.172 16.8783 262.07 16.8783H259.356L259.934 10.7611H266.533V12.5112H261.7L261.459 15.1122H262.535Z" fill="white"/>
</g>
<defs>
<filter id="filter0_d" x="310" y="0" width="32.1587" height="32.1587" filterUnits="userSpaceOnUse" color-interpolation-filters="sRGB">
<feFlood flood-opacity="0" result="BackgroundImageFix"/>
<feColorMatrix in="SourceAlpha" type="matrix" values="0 0 0 0 0 0 0 0 0 0 0 0 0 0 0 0 0 0 127 0"/>
<feOffset dx="1.07936" dy="1.07936"/>
<feGaussianBlur stdDeviation="0.539681"/>
<feColorMatrix type="matrix" values="0 0 0 0 0 0 0 0 0 0 0 0 0 0 0 0 0 0 0.15 0"/>
<feBlend mode="normal" in2="BackgroundImageFix" result="effect1_dropShadow"/>
<feBlend mode="normal" in="SourceGraphic" in2="effect1_dropShadow" result="shape"/>
</filter>
<filter id="filter1_d" x="0" y="0" width="33.7778" height="33.7778" filterUnits="userSpaceOnUse" color-interpolation-filters="sRGB">
<feFlood flood-opacity="0" result="BackgroundImageFix"/>
<feColorMatrix in="SourceAlpha" type="matrix" values="0 0 0 0 0 0 0 0 0 0 0 0 0 0 0 0 0 0 127 0"/>
<feOffset dx="1.88888" dy="1.88888"/>
<feGaussianBlur stdDeviation="0.944441"/>
<feColorMatrix type="matrix" values="0 0 0 0 0 0 0 0 0 0 0 0 0 0 0 0 0 0 0.1 0"/>
<feBlend mode="normal" in2="BackgroundImageFix" result="effect1_dropShadow"/>
<feBlend mode="normal" in="SourceGraphic" in2="effect1_dropShadow" result="shape"/>
</filter>
<filter id="filter2_d" x="62" y="0" width="33.7778" height="33.7778" filterUnits="userSpaceOnUse" color-interpolation-filters="sRGB">
<feFlood flood-opacity="0" result="BackgroundImageFix"/>
<feColorMatrix in="SourceAlpha" type="matrix" values="0 0 0 0 0 0 0 0 0 0 0 0 0 0 0 0 0 0 127 0"/>
<feOffset dx="1.88888" dy="1.88888"/>
<feGaussianBlur stdDeviation="0.944441"/>
<feColorMatrix type="matrix" values="0 0 0 0 0 0 0 0 0 0 0 0 0 0 0 0 0 0 0.1 0"/>
<feBlend mode="normal" in2="BackgroundImageFix" result="effect1_dropShadow"/>
<feBlend mode="normal" in="SourceGraphic" in2="effect1_dropShadow" result="shape"/>
</filter>
<filter id="filter3_d" x="124" y="0" width="33.7778" height="33.7778" filterUnits="userSpaceOnUse" color-interpolation-filters="sRGB">
<feFlood flood-opacity="0" result="BackgroundImageFix"/>
<feColorMatrix in="SourceAlpha" type="matrix" values="0 0 0 0 0 0 0 0 0 0 0 0 0 0 0 0 0 0 127 0"/>
<feOffset dx="1.88888" dy="1.88888"/>
<feGaussianBlur stdDeviation="0.944441"/>
<feColorMatrix type="matrix" values="0 0 0 0 0 0 0 0 0 0 0 0 0 0 0 0 0 0 0.1 0"/>
<feBlend mode="normal" in2="BackgroundImageFix" result="effect1_dropShadow"/>
<feBlend mode="normal" in="SourceGraphic" in2="effect1_dropShadow" result="shape"/>
</filter>
<filter id="filter4_d" x="186" y="0" width="33.7778" height="33.7778" filterUnits="userSpaceOnUse" color-interpolation-filters="sRGB">
<feFlood flood-opacity="0" result="BackgroundImageFix"/>
<feColorMatrix in="SourceAlpha" type="matrix" values="0 0 0 0 0 0 0 0 0 0 0 0 0 0 0 0 0 0 127 0"/>
<feOffset dx="1.88888" dy="1.88888"/>
<feGaussianBlur stdDeviation="0.944441"/>
<feColorMatrix type="matrix" values="0 0 0 0 0 0 0 0 0 0 0 0 0 0 0 0 0 0 0.1 0"/>
<feBlend mode="normal" in2="BackgroundImageFix" result="effect1_dropShadow"/>
<feBlend mode="normal" in="SourceGraphic" in2="effect1_dropShadow" result="shape"/>
</filter>
<filter id="filter5_d" x="248" y="0" width="33.7778" height="33.7778" filterUnits="userSpaceOnUse" color-interpolation-filters="sRGB">
<feFlood flood-opacity="0" result="BackgroundImageFix"/>
<feColorMatrix in="SourceAlpha" type="matrix" values="0 0 0 0 0 0 0 0 0 0 0 0 0 0 0 0 0 0 127 0"/>
<feOffset dx="1.88888" dy="1.88888"/>
<feGaussianBlur stdDeviation="0.944441"/>
<feColorMatrix type="matrix" values="0 0 0 0 0 0 0 0 0 0 0 0 0 0 0 0 0 0 0.1 0"/>
<feBlend mode="normal" in2="BackgroundImageFix" result="effect1_dropShadow"/>
<feBlend mode="normal" in="SourceGraphic" in2="effect1_dropShadow" result="shape"/>
</filter>
</defs>
</svg>
